# xmcd CD database file
#
# Track frame offsets:
#	150
#	3437
#	17693
#	38296
#	57598
#	60017
#	74823
#	93496
#	105565
#	130897
#	152143
#	167868
#	170108
#	194626
#
# Disc length: 4068 seconds
#
# Revision: 0
# Processed by: cddbd v1.5.1PL0 Copyright (c) Steve Scherf et al.
# Submitted via: CDex 1.51
#
DISCID=bc0fe20e
DTITLE=Bender - ...Bender
DYEAR=2005
DGENRE=Blues
TTITLE0=The Jago
TTITLE1=Louder and Louder
TTITLE2=Stop
TTITLE3=Trouble Is
TTITLE4=Easter
TTITLE5=Laugh With Me
TTITLE6=Amen Corner
TTITLE7=Up In The Dust
TTITLE8=Bear Me Away
TTITLE9=Rest In Peace
TTITLE10=Grief For All
TTITLE11=Broken Wharf
TTITLE12=Problem
TTITLE13=Lullaby/Whitechapel 1887
EXTD=YEAR: 2005
EXTT0=
EXTT1=
EXTT2=
EXTT3=
EXTT4=
EXTT5=
EXTT6=
EXTT7=
EXTT8=
EXTT9=
EXTT10=
EXTT11=
EXTT12=
EXTT13=
PLAYORDER=
